<?xml version="1.0" encoding="UTF-8" standalone="no"?>
<!DOCTYPE svg PUBLIC "-//W3C//DTD SVG 1.1//EN"
 "http://www.w3.org/Graphics/SVG/1.1/DTD/svg11.dtd">
<!-- Generated by graphviz version 3.0.0 (20220226.1711)
 -->
<!-- Title: G Pages: 1 -->
<svg width="720pt" height="48pt"
 viewBox="0.00 0.00 720.00 47.54" xmlns="http://www.w3.org/2000/svg" xmlns:xlink="http://www.w3.org/1999/xlink">
<g id="graph0" class="graph" transform="scale(0.182846 0.182846) rotate(0) translate(4 256)">
<title>G</title>
<polygon fill="white" stroke="transparent" points="-4,4 -4,-256 3933.74,-256 3933.74,4 -4,4"/>
<!-- a0 -->
<g id="node1" class="node">
<title>a0</title>
<ellipse fill="none" stroke="black" cx="28.6" cy="-18" rx="28.7" ry="18"/>
<text text-anchor="middle" x="28.6" y="-14.3" font-family="Times New Roman,serif" font-size="14.00">Euro</text>
</g>
<!-- c0 -->
<g id="node2" class="node">
<title>c0</title>
<ellipse fill="none" stroke="black" cx="156.6" cy="-18" rx="81.49" ry="18"/>
<text text-anchor="middle" x="156.6" y="-14.3" font-family="Times New Roman,serif" font-size="14.00">Ciudad de Monaco</text>
</g>
<!-- d0 -->
<g id="node3" class="node">
<title>d0</title>
<ellipse fill="none" stroke="black" cx="295.6" cy="-18" rx="39.79" ry="18"/>
<text text-anchor="middle" x="295.6" y="-14.3" font-family="Times New Roman,serif" font-size="14.00">Francés</text>
</g>
<!-- a1 -->
<g id="node4" class="node">
<title>a1</title>
<ellipse fill="none" stroke="black" cx="381.6" cy="-18" rx="28.7" ry="18"/>
<text text-anchor="middle" x="381.6" y="-14.3" font-family="Times New Roman,serif" font-size="14.00">Euro</text>
</g>
<!-- c1 -->
<g id="node5" class="node">
<title>c1</title>
<ellipse fill="none" stroke="black" cx="459.6" cy="-18" rx="31.4" ry="18"/>
<text text-anchor="middle" x="459.6" y="-14.3" font-family="Times New Roman,serif" font-size="14.00">Viena</text>
</g>
<!-- d1 -->
<g id="node6" class="node">
<title>d1</title>
<ellipse fill="none" stroke="black" cx="547.6" cy="-18" rx="38.19" ry="18"/>
<text text-anchor="middle" x="547.6" y="-14.3" font-family="Times New Roman,serif" font-size="14.00">Alemán</text>
</g>
<!-- a2 -->
<g id="node7" class="node">
<title>a2</title>
<ellipse fill="none" stroke="black" cx="632.6" cy="-18" rx="28.7" ry="18"/>
<text text-anchor="middle" x="632.6" y="-14.3" font-family="Times New Roman,serif" font-size="14.00">Euro</text>
</g>
<!-- c2 -->
<g id="node8" class="node">
<title>c2</title>
<ellipse fill="none" stroke="black" cx="714.6" cy="-18" rx="36" ry="18"/>
<text text-anchor="middle" x="714.6" y="-14.3" font-family="Times New Roman,serif" font-size="14.00">Lisboa</text>
</g>
<!-- d2 -->
<g id="node9" class="node">
<title>d2</title>
<ellipse fill="none" stroke="black" cx="815.6" cy="-18" rx="47.39" ry="18"/>
<text text-anchor="middle" x="815.6" y="-14.3" font-family="Times New Roman,serif" font-size="14.00">Portugués</text>
</g>
<!-- a3 -->
<g id="node10" class="node">
<title>a3</title>
<ellipse fill="none" stroke="black" cx="909.6" cy="-18" rx="28.7" ry="18"/>
<text text-anchor="middle" x="909.6" y="-14.3" font-family="Times New Roman,serif" font-size="14.00">Euro</text>
</g>
<!-- c3 -->
<g id="node11" class="node">
<title>c3</title>
<ellipse fill="none" stroke="black" cx="984.6" cy="-18" rx="28.7" ry="18"/>
<text text-anchor="middle" x="984.6" y="-14.3" font-family="Times New Roman,serif" font-size="14.00">Paris</text>
</g>
<!-- d3 -->
<g id="node12" class="node">
<title>d3</title>
<ellipse fill="none" stroke="black" cx="1070.6" cy="-18" rx="39.79" ry="18"/>
<text text-anchor="middle" x="1070.6" y="-14.3" font-family="Times New Roman,serif" font-size="14.00">Francés</text>
</g>
<!-- a4 -->
<g id="node13" class="node">
<title>a4</title>
<ellipse fill="none" stroke="black" cx="1156.6" cy="-18" rx="28.7" ry="18"/>
<text text-anchor="middle" x="1156.6" y="-14.3" font-family="Times New Roman,serif" font-size="14.00">Euro</text>
</g>
<!-- c4 -->
<g id="node14" class="node">
<title>c4</title>
<ellipse fill="none" stroke="black" cx="1234.6" cy="-18" rx="31.7" ry="18"/>
<text text-anchor="middle" x="1234.6" y="-14.3" font-family="Times New Roman,serif" font-size="14.00">Berlin</text>
</g>
<!-- d4 -->
<g id="node15" class="node">
<title>d4</title>
<ellipse fill="none" stroke="black" cx="1322.6" cy="-18" rx="38.19" ry="18"/>
<text text-anchor="middle" x="1322.6" y="-14.3" font-family="Times New Roman,serif" font-size="14.00">Alemán</text>
</g>
<!-- a5 -->
<g id="node16" class="node">
<title>a5</title>
<ellipse fill="none" stroke="black" cx="1407.6" cy="-18" rx="28.7" ry="18"/>
<text text-anchor="middle" x="1407.6" y="-14.3" font-family="Times New Roman,serif" font-size="14.00">Euro</text>
</g>
<!-- c5 -->
<g id="node17" class="node">
<title>c5</title>
<ellipse fill="none" stroke="black" cx="1491.6" cy="-18" rx="37.09" ry="18"/>
<text text-anchor="middle" x="1491.6" y="-14.3" font-family="Times New Roman,serif" font-size="14.00">Madrid</text>
</g>
<!-- d5 -->
<g id="node18" class="node">
<title>d5</title>
<ellipse fill="none" stroke="black" cx="1586.6" cy="-18" rx="40.09" ry="18"/>
<text text-anchor="middle" x="1586.6" y="-14.3" font-family="Times New Roman,serif" font-size="14.00">Español</text>
</g>
<!-- a6 -->
<g id="node19" class="node">
<title>a6</title>
<ellipse fill="none" stroke="black" cx="1675.6" cy="-18" rx="30.59" ry="18"/>
<text text-anchor="middle" x="1675.6" y="-14.3" font-family="Times New Roman,serif" font-size="14.00">Dolar</text>
</g>
<!-- c6 -->
<g id="node20" class="node">
<title>c6</title>
<ellipse fill="none" stroke="black" cx="1793.6" cy="-18" rx="69.59" ry="18"/>
<text text-anchor="middle" x="1793.6" y="-14.3" font-family="Times New Roman,serif" font-size="14.00">Washington DC</text>
</g>
<!-- d6 -->
<g id="node21" class="node">
<title>d6</title>
<ellipse fill="none" stroke="black" cx="1913.6" cy="-18" rx="32.49" ry="18"/>
<text text-anchor="middle" x="1913.6" y="-14.3" font-family="Times New Roman,serif" font-size="14.00">Inglés</text>
</g>
<!-- a7 -->
<g id="node22" class="node">
<title>a7</title>
<ellipse fill="none" stroke="black" cx="2002.6" cy="-18" rx="38.19" ry="18"/>
<text text-anchor="middle" x="2002.6" y="-14.3" font-family="Times New Roman,serif" font-size="14.00">Quetzal</text>
</g>
<!-- c7 -->
<g id="node23" class="node">
<title>c7</title>
<ellipse fill="none" stroke="black" cx="2147.6" cy="-18" rx="89.08" ry="18"/>
<text text-anchor="middle" x="2147.6" y="-14.3" font-family="Times New Roman,serif" font-size="14.00">Ciudad de Guatemala</text>
</g>
<!-- d7 -->
<g id="node24" class="node">
<title>d7</title>
<ellipse fill="none" stroke="black" cx="2294.6" cy="-18" rx="40.09" ry="18"/>
<text text-anchor="middle" x="2294.6" y="-14.3" font-family="Times New Roman,serif" font-size="14.00">Español</text>
</g>
<!-- a8 -->
<g id="node25" class="node">
<title>a8</title>
<ellipse fill="none" stroke="black" cx="2383.6" cy="-18" rx="30.59" ry="18"/>
<text text-anchor="middle" x="2383.6" y="-14.3" font-family="Times New Roman,serif" font-size="14.00">Dolar</text>
</g>
<!-- c8 -->
<g id="node26" class="node">
<title>c8</title>
<ellipse fill="none" stroke="black" cx="2491.6" cy="-18" rx="59.29" ry="18"/>
<text text-anchor="middle" x="2491.6" y="-14.3" font-family="Times New Roman,serif" font-size="14.00">San Salvador</text>
</g>
<!-- d8 -->
<g id="node27" class="node">
<title>d8</title>
<ellipse fill="none" stroke="black" cx="2608.6" cy="-18" rx="40.09" ry="18"/>
<text text-anchor="middle" x="2608.6" y="-14.3" font-family="Times New Roman,serif" font-size="14.00">Español</text>
</g>
<!-- a9 -->
<g id="node28" class="node">
<title>a9</title>
<ellipse fill="none" stroke="black" cx="2731.6" cy="-18" rx="64.19" ry="18"/>
<text text-anchor="middle" x="2731.6" y="-14.3" font-family="Times New Roman,serif" font-size="14.00">Peso argentino</text>
</g>
<!-- c9 -->
<g id="node29" class="node">
<title>c9</title>
<ellipse fill="none" stroke="black" cx="2873.6" cy="-18" rx="59.59" ry="18"/>
<text text-anchor="middle" x="2873.6" y="-14.3" font-family="Times New Roman,serif" font-size="14.00">Buenos Aires</text>
</g>
<!-- d9 -->
<g id="node30" class="node">
<title>d9</title>
<ellipse fill="none" stroke="black" cx="2991.6" cy="-18" rx="40.09" ry="18"/>
<text text-anchor="middle" x="2991.6" y="-14.3" font-family="Times New Roman,serif" font-size="14.00">Español</text>
</g>
<!-- a10 -->
<g id="node31" class="node">
<title>a10</title>
<ellipse fill="none" stroke="black" cx="3111.6" cy="-18" rx="61.99" ry="18"/>
<text text-anchor="middle" x="3111.6" y="-14.3" font-family="Times New Roman,serif" font-size="14.00">Real brasileño</text>
</g>
<!-- c10 -->
<g id="node32" class="node">
<title>c10</title>
<ellipse fill="none" stroke="black" cx="3228.6" cy="-18" rx="37.09" ry="18"/>
<text text-anchor="middle" x="3228.6" y="-14.3" font-family="Times New Roman,serif" font-size="14.00">Brasilia</text>
</g>
<!-- d10 -->
<g id="node33" class="node">
<title>d10</title>
<ellipse fill="none" stroke="black" cx="3330.6" cy="-18" rx="47.39" ry="18"/>
<text text-anchor="middle" x="3330.6" y="-14.3" font-family="Times New Roman,serif" font-size="14.00">Portugués</text>
</g>
<!-- a11 -->
<g id="node34" class="node">
<title>a11</title>
<ellipse fill="none" stroke="black" cx="3422.6" cy="-18" rx="27" ry="18"/>
<text text-anchor="middle" x="3422.6" y="-14.3" font-family="Times New Roman,serif" font-size="14.00">Yen</text>
</g>
<!-- c11 -->
<g id="node35" class="node">
<title>c11</title>
<ellipse fill="none" stroke="black" cx="3499.6" cy="-18" rx="32.49" ry="18"/>
<text text-anchor="middle" x="3499.6" y="-14.3" font-family="Times New Roman,serif" font-size="14.00">Tokio</text>
</g>
<!-- d11 -->
<g id="node36" class="node">
<title>d11</title>
<ellipse fill="none" stroke="black" cx="3590.6" cy="-18" rx="40.09" ry="18"/>
<text text-anchor="middle" x="3590.6" y="-14.3" font-family="Times New Roman,serif" font-size="14.00">Japonés</text>
</g>
<!-- a12 -->
<g id="node37" class="node">
<title>a12</title>
<ellipse fill="none" stroke="black" cx="3694.6" cy="-18" rx="45.49" ry="18"/>
<text text-anchor="middle" x="3694.6" y="-14.3" font-family="Times New Roman,serif" font-size="14.00">Renminbi</text>
</g>
<!-- c12 -->
<g id="node38" class="node">
<title>c12</title>
<ellipse fill="none" stroke="black" cx="3788.6" cy="-18" rx="30.59" ry="18"/>
<text text-anchor="middle" x="3788.6" y="-14.3" font-family="Times New Roman,serif" font-size="14.00">Pekin</text>
</g>
<!-- d12 -->
<g id="node39" class="node">
<title>d12</title>
<ellipse fill="none" stroke="black" cx="3883.6" cy="-18" rx="46.29" ry="18"/>
<text text-anchor="middle" x="3883.6" y="-14.3" font-family="Times New Roman,serif" font-size="14.00">Mandarín</text>
</g>
<!-- Mundo -->
<g id="node40" class="node">
<title>Mundo</title>
<ellipse fill="none" stroke="black" cx="2491.6" cy="-234" rx="37.09" ry="18"/>
<text text-anchor="middle" x="2491.6" y="-230.3" font-family="Times New Roman,serif" font-size="14.00">Mundo</text>
</g>
<!-- Europa -->
<g id="node41" class="node">
<title>Europa</title>
<ellipse fill="none" stroke="black" cx="984.6" cy="-162" rx="37.09" ry="18"/>
<text text-anchor="middle" x="984.6" y="-158.3" font-family="Times New Roman,serif" font-size="14.00">Europa</text>
</g>
<!-- Mundo&#45;&gt;Europa -->
<g id="edge1" class="edge">
<title>Mundo&#45;&gt;Europa</title>
<path fill="none" stroke="black" d="M2454.72,-231.29C2250.55,-221.8 1259.75,-175.78 1031.54,-165.18"/>
<polygon fill="black" stroke="black" points="1031.41,-161.67 1021.26,-164.7 1031.08,-168.66 1031.41,-161.67"/>
</g>
<!-- America -->
<g id="node48" class="node">
<title>America</title>
<ellipse fill="none" stroke="black" cx="2491.6" cy="-162" rx="40.89" ry="18"/>
<text text-anchor="middle" x="2491.6" y="-158.3" font-family="Times New Roman,serif" font-size="14.00">America</text>
</g>
<!-- Mundo&#45;&gt;America -->
<g id="edge26" class="edge">
<title>Mundo&#45;&gt;America</title>
<path fill="none" stroke="black" d="M2491.6,-215.7C2491.6,-207.98 2491.6,-198.71 2491.6,-190.11"/>
<polygon fill="black" stroke="black" points="2495.1,-190.1 2491.6,-180.1 2488.1,-190.1 2495.1,-190.1"/>
</g>
<!-- Asia -->
<g id="node54" class="node">
<title>Asia</title>
<ellipse fill="none" stroke="black" cx="3499.6" cy="-162" rx="27" ry="18"/>
<text text-anchor="middle" x="3499.6" y="-158.3" font-family="Times New Roman,serif" font-size="14.00">Asia</text>
</g>
<!-- Mundo&#45;&gt;Asia -->
<g id="edge47" class="edge">
<title>Mundo&#45;&gt;Asia</title>
<path fill="none" stroke="black" d="M2528.07,-230.47C2685.23,-219.55 3303.82,-176.6 3462.4,-165.58"/>
<polygon fill="black" stroke="black" points="3462.86,-169.06 3472.59,-164.88 3462.37,-162.08 3462.86,-169.06"/>
</g>
<!-- Monaco -->
<g id="node42" class="node">
<title>Monaco</title>
<ellipse fill="none" stroke="black" cx="226.6" cy="-90" rx="40.89" ry="18"/>
<text text-anchor="middle" x="226.6" y="-86.3" font-family="Times New Roman,serif" font-size="14.00">Monaco</text>
</g>
<!-- Europa&#45;&gt;Monaco -->
<g id="edge2" class="edge">
<title>Europa&#45;&gt;Monaco</title>
<path fill="none" stroke="black" d="M948.55,-157.67C825.12,-146.27 419.29,-108.8 276.69,-95.63"/>
<polygon fill="black" stroke="black" points="276.76,-92.12 266.48,-94.68 276.12,-99.09 276.76,-92.12"/>
</g>
<!-- Austria -->
<g id="node43" class="node">
<title>Austria</title>
<ellipse fill="none" stroke="black" cx="503.6" cy="-90" rx="36.29" ry="18"/>
<text text-anchor="middle" x="503.6" y="-86.3" font-family="Times New Roman,serif" font-size="14.00">Austria</text>
</g>
<!-- Europa&#45;&gt;Austria -->
<g id="edge6" class="edge">
<title>Europa&#45;&gt;Austria</title>
<path fill="none" stroke="black" d="M949.62,-155.91C863.87,-143.43 643.31,-111.33 548.27,-97.5"/>
<polygon fill="black" stroke="black" points="548.52,-94 538.12,-96.02 547.51,-100.93 548.52,-94"/>
</g>
<!-- Portugal -->
<g id="node44" class="node">
<title>Portugal</title>
<ellipse fill="none" stroke="black" cx="765.6" cy="-90" rx="40.89" ry="18"/>
<text text-anchor="middle" x="765.6" y="-86.3" font-family="Times New Roman,serif" font-size="14.00">Portugal</text>
</g>
<!-- Europa&#45;&gt;Portugal -->
<g id="edge10" class="edge">
<title>Europa&#45;&gt;Portugal</title>
<path fill="none" stroke="black" d="M954.61,-151.41C916.46,-139.22 850.38,-118.1 807.33,-104.34"/>
<polygon fill="black" stroke="black" points="808.3,-100.98 797.71,-101.27 806.17,-107.64 808.3,-100.98"/>
</g>
<!-- Francia -->
<g id="node45" class="node">
<title>Francia</title>
<ellipse fill="none" stroke="black" cx="984.6" cy="-90" rx="37.89" ry="18"/>
<text text-anchor="middle" x="984.6" y="-86.3" font-family="Times New Roman,serif" font-size="14.00">Francia</text>
</g>
<!-- Europa&#45;&gt;Francia -->
<g id="edge14" class="edge">
<title>Europa&#45;&gt;Francia</title>
<path fill="none" stroke="black" d="M984.6,-143.7C984.6,-135.98 984.6,-126.71 984.6,-118.11"/>
<polygon fill="black" stroke="black" points="988.1,-118.1 984.6,-108.1 981.1,-118.1 988.1,-118.1"/>
</g>
<!-- Alemania -->
<g id="node46" class="node">
<title>Alemania</title>
<ellipse fill="none" stroke="black" cx="1195.6" cy="-90" rx="44.39" ry="18"/>
<text text-anchor="middle" x="1195.6" y="-86.3" font-family="Times New Roman,serif" font-size="14.00">Alemania</text>
</g>
<!-- Europa&#45;&gt;Alemania -->
<g id="edge18" class="edge">
<title>Europa&#45;&gt;Alemania</title>
<path fill="none" stroke="black" d="M1014.38,-151.12C1050.48,-139.14 1111.58,-118.87 1152.74,-105.22"/>
<polygon fill="black" stroke="black" points="1154.1,-108.45 1162.49,-101.98 1151.9,-101.81 1154.1,-108.45"/>
</g>
<!-- España -->
<g id="node47" class="node">
<title>España</title>
<ellipse fill="none" stroke="black" cx="1449.6" cy="-90" rx="37.09" ry="18"/>
<text text-anchor="middle" x="1449.6" y="-86.3" font-family="Times New Roman,serif" font-size="14.00">España</text>
</g>
<!-- Europa&#45;&gt;España -->
<g id="edge22" class="edge">
<title>Europa&#45;&gt;España</title>
<path fill="none" stroke="black" d="M1019.55,-155.74C1102.63,-143.23 1311.87,-111.73 1404.4,-97.8"/>
<polygon fill="black" stroke="black" points="1405.19,-101.22 1414.56,-96.27 1404.15,-94.3 1405.19,-101.22"/>
</g>
<!-- Monaco&#45;&gt;a0 -->
<g id="edge3" class="edge">
<title>Monaco&#45;&gt;a0</title>
<path fill="none" stroke="black" d="M193.77,-79.19C161.19,-69.2 109.97,-52.84 66.6,-36 64.52,-35.19 62.39,-34.33 60.25,-33.44"/>
<polygon fill="black" stroke="black" points="61.51,-30.18 50.94,-29.45 58.75,-36.61 61.51,-30.18"/>
</g>
<!-- Monaco&#45;&gt;c0 -->
<g id="edge4" class="edge">
<title>Monaco&#45;&gt;c0</title>
<path fill="none" stroke="black" d="M210.71,-73.12C201.84,-64.24 190.61,-53.01 180.67,-43.08"/>
<polygon fill="black" stroke="black" points="182.94,-40.39 173.39,-35.8 177.99,-45.34 182.94,-40.39"/>
</g>
<!-- Monaco&#45;&gt;d0 -->
<g id="edge5" class="edge">
<title>Monaco&#45;&gt;d0</title>
<path fill="none" stroke="black" d="M242.25,-73.12C251.25,-63.99 262.72,-52.36 272.71,-42.22"/>
<polygon fill="black" stroke="black" points="275.47,-44.4 280,-34.82 270.49,-39.49 275.47,-44.4"/>
</g>
<!-- Austria&#45;&gt;a1 -->
<g id="edge7" class="edge">
<title>Austria&#45;&gt;a1</title>
<path fill="none" stroke="black" d="M480.65,-75.83C460.84,-64.47 432.12,-47.99 410.69,-35.7"/>
<polygon fill="black" stroke="black" points="412.42,-32.65 402.01,-30.71 408.94,-38.72 412.42,-32.65"/>
</g>
<!-- Austria&#45;&gt;c1 -->
<g id="edge8" class="edge">
<title>Austria&#45;&gt;c1</title>
<path fill="none" stroke="black" d="M493.17,-72.41C487.85,-63.95 481.28,-53.49 475.36,-44.08"/>
<polygon fill="black" stroke="black" points="478.23,-42.07 469.95,-35.47 472.31,-45.8 478.23,-42.07"/>
</g>
<!-- Austria&#45;&gt;d1 -->
<g id="edge9" class="edge">
<title>Austria&#45;&gt;d1</title>
<path fill="none" stroke="black" d="M514.02,-72.41C519.34,-63.95 525.92,-53.49 531.83,-44.08"/>
<polygon fill="black" stroke="black" points="534.89,-45.8 537.24,-35.47 528.96,-42.07 534.89,-45.8"/>
</g>
<!-- Portugal&#45;&gt;a2 -->
<g id="edge11" class="edge">
<title>Portugal&#45;&gt;a2</title>
<path fill="none" stroke="black" d="M740.27,-75.67C718.28,-64.09 686.38,-47.31 663.01,-35.01"/>
<polygon fill="black" stroke="black" points="664.36,-31.76 653.89,-30.2 661.1,-37.96 664.36,-31.76"/>
</g>
<!-- Portugal&#45;&gt;c2 -->
<g id="edge12" class="edge">
<title>Portugal&#45;&gt;c2</title>
<path fill="none" stroke="black" d="M753.77,-72.76C747.4,-64.02 739.41,-53.05 732.31,-43.31"/>
<polygon fill="black" stroke="black" points="735.08,-41.17 726.36,-35.15 729.42,-45.29 735.08,-41.17"/>
</g>
<!-- Portugal&#45;&gt;d2 -->
<g id="edge13" class="edge">
<title>Portugal&#45;&gt;d2</title>
<path fill="none" stroke="black" d="M777.45,-72.41C783.55,-63.87 791.11,-53.28 797.89,-43.79"/>
<polygon fill="black" stroke="black" points="800.87,-45.64 803.83,-35.47 795.17,-41.57 800.87,-45.64"/>
</g>
<!-- Francia&#45;&gt;a3 -->
<g id="edge15" class="edge">
<title>Francia&#45;&gt;a3</title>
<path fill="none" stroke="black" d="M967.95,-73.46C957.5,-63.71 943.89,-51 932.44,-40.32"/>
<polygon fill="black" stroke="black" points="934.62,-37.56 924.92,-33.3 929.84,-42.68 934.62,-37.56"/>
</g>
<!-- Francia&#45;&gt;c3 -->
<g id="edge16" class="edge">
<title>Francia&#45;&gt;c3</title>
<path fill="none" stroke="black" d="M984.6,-71.7C984.6,-63.98 984.6,-54.71 984.6,-46.11"/>
<polygon fill="black" stroke="black" points="988.1,-46.1 984.6,-36.1 981.1,-46.1 988.1,-46.1"/>
</g>
<!-- Francia&#45;&gt;d3 -->
<g id="edge17" class="edge">
<title>Francia&#45;&gt;d3</title>
<path fill="none" stroke="black" d="M1002.84,-74.15C1014.84,-64.38 1030.75,-51.43 1044.14,-40.54"/>
<polygon fill="black" stroke="black" points="1046.54,-43.09 1052.09,-34.07 1042.12,-37.66 1046.54,-43.09"/>
</g>
<!-- Alemania&#45;&gt;a4 -->
<g id="edge19" class="edge">
<title>Alemania&#45;&gt;a4</title>
<path fill="none" stroke="black" d="M1186.16,-72.05C1181.49,-63.68 1175.77,-53.4 1170.6,-44.13"/>
<polygon fill="black" stroke="black" points="1173.61,-42.34 1165.68,-35.31 1167.49,-45.75 1173.61,-42.34"/>
</g>
<!-- Alemania&#45;&gt;c4 -->
<g id="edge20" class="edge">
<title>Alemania&#45;&gt;c4</title>
<path fill="none" stroke="black" d="M1205.04,-72.05C1209.7,-63.68 1215.43,-53.4 1220.59,-44.13"/>
<polygon fill="black" stroke="black" points="1223.7,-45.75 1225.51,-35.31 1217.59,-42.34 1223.7,-45.75"/>
</g>
<!-- Alemania&#45;&gt;d4 -->
<g id="edge21" class="edge">
<title>Alemania&#45;&gt;d4</title>
<path fill="none" stroke="black" d="M1220.69,-75.17C1240.42,-64.29 1268.09,-49.05 1289.61,-37.18"/>
<polygon fill="black" stroke="black" points="1291.35,-40.22 1298.42,-32.33 1287.97,-34.09 1291.35,-40.22"/>
</g>
<!-- España&#45;&gt;a5 -->
<g id="edge23" class="edge">
<title>España&#45;&gt;a5</title>
<path fill="none" stroke="black" d="M1439.64,-72.41C1434.5,-63.83 1428.11,-53.19 1422.4,-43.67"/>
<polygon fill="black" stroke="black" points="1425.34,-41.76 1417.19,-34.99 1419.33,-45.36 1425.34,-41.76"/>
</g>
<!-- España&#45;&gt;c5 -->
<g id="edge24" class="edge">
<title>España&#45;&gt;c5</title>
<path fill="none" stroke="black" d="M1459.55,-72.41C1464.62,-63.95 1470.9,-53.49 1476.55,-44.08"/>
<polygon fill="black" stroke="black" points="1479.57,-45.85 1481.72,-35.47 1473.57,-42.24 1479.57,-45.85"/>
</g>
<!-- España&#45;&gt;d5 -->
<g id="edge25" class="edge">
<title>España&#45;&gt;d5</title>
<path fill="none" stroke="black" d="M1474.09,-76.49C1495.7,-65.45 1527.43,-49.23 1551.7,-36.83"/>
<polygon fill="black" stroke="black" points="1553.61,-39.79 1560.92,-32.12 1550.42,-33.55 1553.61,-39.79"/>
</g>
<!-- Estados unidos -->
<g id="node49" class="node">
<title>Estados unidos</title>
<ellipse fill="none" stroke="black" cx="1853.6" cy="-90" rx="66.89" ry="18"/>
<text text-anchor="middle" x="1853.6" y="-86.3" font-family="Times New Roman,serif" font-size="14.00">Estados unidos</text>
</g>
<!-- America&#45;&gt;Estados unidos -->
<g id="edge27" class="edge">
<title>America&#45;&gt;Estados unidos</title>
<path fill="none" stroke="black" d="M2452.17,-156.67C2347.05,-145.14 2058.97,-113.53 1924.49,-98.78"/>
<polygon fill="black" stroke="black" points="1924.62,-95.27 1914.3,-97.66 1923.86,-102.23 1924.62,-95.27"/>
</g>
<!-- Guatemala -->
<g id="node50" class="node">
<title>Guatemala</title>
<ellipse fill="none" stroke="black" cx="2220.6" cy="-90" rx="48.99" ry="18"/>
<text text-anchor="middle" x="2220.6" y="-86.3" font-family="Times New Roman,serif" font-size="14.00">Guatemala</text>
</g>
<!-- America&#45;&gt;Guatemala -->
<g id="edge31" class="edge">
<title>America&#45;&gt;Guatemala</title>
<path fill="none" stroke="black" d="M2457.28,-152.13C2409.68,-139.84 2323.38,-117.55 2269.18,-103.55"/>
<polygon fill="black" stroke="black" points="2270.01,-100.15 2259.45,-101.04 2268.26,-106.93 2270.01,-100.15"/>
</g>
<!-- El Salvador -->
<g id="node51" class="node">
<title>El Salvador</title>
<ellipse fill="none" stroke="black" cx="2491.6" cy="-90" rx="52.79" ry="18"/>
<text text-anchor="middle" x="2491.6" y="-86.3" font-family="Times New Roman,serif" font-size="14.00">El Salvador</text>
</g>
<!-- America&#45;&gt;El Salvador -->
<g id="edge35" class="edge">
<title>America&#45;&gt;El Salvador</title>
<path fill="none" stroke="black" d="M2491.6,-143.7C2491.6,-135.98 2491.6,-126.71 2491.6,-118.11"/>
<polygon fill="black" stroke="black" points="2495.1,-118.1 2491.6,-108.1 2488.1,-118.1 2495.1,-118.1"/>
</g>
<!-- Argentina -->
<g id="node52" class="node">
<title>Argentina</title>
<ellipse fill="none" stroke="black" cx="2802.6" cy="-90" rx="45.49" ry="18"/>
<text text-anchor="middle" x="2802.6" y="-86.3" font-family="Times New Roman,serif" font-size="14.00">Argentina</text>
</g>
<!-- America&#45;&gt;Argentina -->
<g id="edge39" class="edge">
<title>America&#45;&gt;Argentina</title>
<path fill="none" stroke="black" d="M2527.27,-152.97C2583.04,-140.42 2690.99,-116.12 2753.87,-101.97"/>
<polygon fill="black" stroke="black" points="2754.95,-105.31 2763.94,-99.7 2753.42,-98.48 2754.95,-105.31"/>
</g>
<!-- Brasil -->
<g id="node53" class="node">
<title>Brasil</title>
<ellipse fill="none" stroke="black" cx="3169.6" cy="-90" rx="31.4" ry="18"/>
<text text-anchor="middle" x="3169.6" y="-86.3" font-family="Times New Roman,serif" font-size="14.00">Brasil</text>
</g>
<!-- America&#45;&gt;Brasil -->
<g id="edge43" class="edge">
<title>America&#45;&gt;Brasil</title>
<path fill="none" stroke="black" d="M2530.98,-156.93C2650.44,-144.6 3007.9,-107.69 3128.98,-95.19"/>
<polygon fill="black" stroke="black" points="3129.36,-98.67 3138.95,-94.16 3128.65,-91.71 3129.36,-98.67"/>
</g>
<!-- Estados unidos&#45;&gt;a6 -->
<g id="edge28" class="edge">
<title>Estados unidos&#45;&gt;a6</title>
<path fill="none" stroke="black" d="M1815.65,-75.08C1787.6,-64.65 1748.55,-49.86 1714.6,-36 1712.75,-35.25 1710.86,-34.46 1708.96,-33.66"/>
<polygon fill="black" stroke="black" points="1710.02,-30.31 1699.45,-29.61 1707.27,-36.75 1710.02,-30.31"/>
</g>
<!-- Estados unidos&#45;&gt;c6 -->
<g id="edge29" class="edge">
<title>Estados unidos&#45;&gt;c6</title>
<path fill="none" stroke="black" d="M1839.07,-72.05C1831.7,-63.46 1822.62,-52.86 1814.51,-43.4"/>
<polygon fill="black" stroke="black" points="1817.15,-41.1 1807.99,-35.79 1811.84,-45.66 1817.15,-41.1"/>
</g>
<!-- Estados unidos&#45;&gt;d6 -->
<g id="edge30" class="edge">
<title>Estados unidos&#45;&gt;d6</title>
<path fill="none" stroke="black" d="M1868.12,-72.05C1875.71,-63.2 1885.11,-52.23 1893.4,-42.57"/>
<polygon fill="black" stroke="black" points="1896.18,-44.7 1900.03,-34.83 1890.86,-40.14 1896.18,-44.7"/>
</g>
<!-- Guatemala&#45;&gt;a7 -->
<g id="edge32" class="edge">
<title>Guatemala&#45;&gt;a7</title>
<path fill="none" stroke="black" d="M2183.75,-78.12C2149.01,-67.73 2095.56,-51.43 2049.6,-36 2046.9,-35.09 2044.12,-34.14 2041.32,-33.17"/>
<polygon fill="black" stroke="black" points="2042.45,-29.85 2031.86,-29.82 2040.12,-36.45 2042.45,-29.85"/>
</g>
<!-- Guatemala&#45;&gt;c7 -->
<g id="edge33" class="edge">
<title>Guatemala&#45;&gt;c7</title>
<path fill="none" stroke="black" d="M2203.67,-72.76C2194.47,-63.95 2182.92,-52.87 2172.7,-43.07"/>
<polygon fill="black" stroke="black" points="2174.84,-40.27 2165.2,-35.88 2169.99,-45.33 2174.84,-40.27"/>
</g>
<!-- Guatemala&#45;&gt;d7 -->
<g id="edge34" class="edge">
<title>Guatemala&#45;&gt;d7</title>
<path fill="none" stroke="black" d="M2237.76,-72.76C2247.52,-63.53 2259.89,-51.83 2270.6,-41.7"/>
<polygon fill="black" stroke="black" points="2273.18,-44.08 2278.04,-34.67 2268.37,-39 2273.18,-44.08"/>
</g>
<!-- El Salvador&#45;&gt;a8 -->
<g id="edge36" class="edge">
<title>El Salvador&#45;&gt;a8</title>
<path fill="none" stroke="black" d="M2468.16,-73.81C2451.68,-63.13 2429.53,-48.77 2412.04,-37.43"/>
<polygon fill="black" stroke="black" points="2413.66,-34.32 2403.37,-31.81 2409.85,-40.19 2413.66,-34.32"/>
</g>
<!-- El Salvador&#45;&gt;c8 -->
<g id="edge37" class="edge">
<title>El Salvador&#45;&gt;c8</title>
<path fill="none" stroke="black" d="M2491.6,-71.7C2491.6,-63.98 2491.6,-54.71 2491.6,-46.11"/>
<polygon fill="black" stroke="black" points="2495.1,-46.1 2491.6,-36.1 2488.1,-46.1 2495.1,-46.1"/>
</g>
<!-- El Salvador&#45;&gt;d8 -->
<g id="edge38" class="edge">
<title>El Salvador&#45;&gt;d8</title>
<path fill="none" stroke="black" d="M2516.7,-73.98C2534.32,-63.44 2558.02,-49.26 2576.94,-37.94"/>
<polygon fill="black" stroke="black" points="2578.74,-40.94 2585.53,-32.8 2575.15,-34.93 2578.74,-40.94"/>
</g>
<!-- Argentina&#45;&gt;a9 -->
<g id="edge40" class="edge">
<title>Argentina&#45;&gt;a9</title>
<path fill="none" stroke="black" d="M2786.49,-73.12C2777.49,-64.24 2766.09,-53.01 2756.02,-43.08"/>
<polygon fill="black" stroke="black" points="2758.21,-40.33 2748.63,-35.8 2753.3,-45.31 2758.21,-40.33"/>
</g>
<!-- Argentina&#45;&gt;c9 -->
<g id="edge41" class="edge">
<title>Argentina&#45;&gt;c9</title>
<path fill="none" stroke="black" d="M2818.71,-73.12C2827.93,-64.03 2839.66,-52.46 2849.91,-42.35"/>
<polygon fill="black" stroke="black" points="2852.39,-44.82 2857.06,-35.31 2847.48,-39.84 2852.39,-44.82"/>
</g>
<!-- Argentina&#45;&gt;d9 -->
<g id="edge42" class="edge">
<title>Argentina&#45;&gt;d9</title>
<path fill="none" stroke="black" d="M2834.66,-77.13C2867.1,-65.11 2917.31,-46.51 2952.17,-33.6"/>
<polygon fill="black" stroke="black" points="2953.4,-36.88 2961.57,-30.12 2950.97,-30.31 2953.4,-36.88"/>
</g>
<!-- Brasil&#45;&gt;a10 -->
<g id="edge44" class="edge">
<title>Brasil&#45;&gt;a10</title>
<path fill="none" stroke="black" d="M3156.73,-73.46C3149.53,-64.78 3140.39,-53.75 3132.22,-43.89"/>
<polygon fill="black" stroke="black" points="3134.73,-41.43 3125.65,-35.96 3129.34,-45.9 3134.73,-41.43"/>
</g>
<!-- Brasil&#45;&gt;c10 -->
<g id="edge45" class="edge">
<title>Brasil&#45;&gt;c10</title>
<path fill="none" stroke="black" d="M3182.69,-73.46C3190.3,-64.44 3200.04,-52.88 3208.59,-42.73"/>
<polygon fill="black" stroke="black" points="3211.36,-44.88 3215.13,-34.98 3206.01,-40.37 3211.36,-44.88"/>
</g>
<!-- Brasil&#45;&gt;d10 -->
<g id="edge46" class="edge">
<title>Brasil&#45;&gt;d10</title>
<path fill="none" stroke="black" d="M3193.7,-78.52C3219.43,-67.34 3260.59,-49.44 3291.07,-36.18"/>
<polygon fill="black" stroke="black" points="3292.79,-39.26 3300.56,-32.06 3290,-32.84 3292.79,-39.26"/>
</g>
<!-- Japón -->
<g id="node55" class="node">
<title>Japón</title>
<ellipse fill="none" stroke="black" cx="3499.6" cy="-90" rx="32.49" ry="18"/>
<text text-anchor="middle" x="3499.6" y="-86.3" font-family="Times New Roman,serif" font-size="14.00">Japón</text>
</g>
<!-- Asia&#45;&gt;Japón -->
<g id="edge48" class="edge">
<title>Asia&#45;&gt;Japón</title>
<path fill="none" stroke="black" d="M3499.6,-143.7C3499.6,-135.98 3499.6,-126.71 3499.6,-118.11"/>
<polygon fill="black" stroke="black" points="3503.1,-118.1 3499.6,-108.1 3496.1,-118.1 3503.1,-118.1"/>
</g>
<!-- China -->
<g id="node56" class="node">
<title>China</title>
<ellipse fill="none" stroke="black" cx="3741.6" cy="-90" rx="31.7" ry="18"/>
<text text-anchor="middle" x="3741.6" y="-86.3" font-family="Times New Roman,serif" font-size="14.00">China</text>
</g>
<!-- Asia&#45;&gt;China -->
<g id="edge52" class="edge">
<title>Asia&#45;&gt;China</title>
<path fill="none" stroke="black" d="M3524.13,-153.9C3566.52,-141.64 3653.7,-116.42 3703.85,-101.92"/>
<polygon fill="black" stroke="black" points="3705.03,-105.22 3713.66,-99.08 3703.08,-98.5 3705.03,-105.22"/>
</g>
<!-- Japón&#45;&gt;a11 -->
<g id="edge49" class="edge">
<title>Japón&#45;&gt;a11</title>
<path fill="none" stroke="black" d="M3483.27,-74.15C3472.26,-64.15 3457.58,-50.8 3445.42,-39.75"/>
<polygon fill="black" stroke="black" points="3447.61,-37.01 3437.86,-32.87 3442.9,-42.19 3447.61,-37.01"/>
</g>
<!-- Japón&#45;&gt;c11 -->
<g id="edge50" class="edge">
<title>Japón&#45;&gt;c11</title>
<path fill="none" stroke="black" d="M3499.6,-71.7C3499.6,-63.98 3499.6,-54.71 3499.6,-46.11"/>
<polygon fill="black" stroke="black" points="3503.1,-46.1 3499.6,-36.1 3496.1,-46.1 3503.1,-46.1"/>
</g>
<!-- Japón&#45;&gt;d11 -->
<g id="edge51" class="edge">
<title>Japón&#45;&gt;d11</title>
<path fill="none" stroke="black" d="M3518.01,-74.83C3530.95,-64.88 3548.48,-51.4 3563.07,-40.17"/>
<polygon fill="black" stroke="black" points="3565.48,-42.74 3571.27,-33.87 3561.21,-37.19 3565.48,-42.74"/>
</g>
<!-- China&#45;&gt;a12 -->
<g id="edge53" class="edge">
<title>China&#45;&gt;a12</title>
<path fill="none" stroke="black" d="M3730.7,-72.76C3724.97,-64.23 3717.82,-53.58 3711.4,-44.02"/>
<polygon fill="black" stroke="black" points="3714.25,-41.98 3705.77,-35.63 3708.43,-45.89 3714.25,-41.98"/>
</g>
<!-- China&#45;&gt;c12 -->
<g id="edge54" class="edge">
<title>China&#45;&gt;c12</title>
<path fill="none" stroke="black" d="M3752.5,-72.76C3758.31,-64.11 3765.59,-53.27 3772.08,-43.6"/>
<polygon fill="black" stroke="black" points="3775.09,-45.4 3777.76,-35.15 3769.28,-41.5 3775.09,-45.4"/>
</g>
<!-- China&#45;&gt;d12 -->
<g id="edge55" class="edge">
<title>China&#45;&gt;d12</title>
<path fill="none" stroke="black" d="M3764.73,-77.6C3786.99,-66.63 3820.99,-49.86 3846.94,-37.07"/>
<polygon fill="black" stroke="black" points="3848.67,-40.12 3856.1,-32.56 3845.58,-33.84 3848.67,-40.12"/>
</g>
</g>
</svg>
